<svg xmlns="http://www.w3.org/2000/svg" viewBox="0 0 241.2 84.9"><polygon points="26.88 40.98 27.78 40.88 27.75 43.58 26.59 43.65 26.88 40.98" fill="#9cb227"/><path d="M32.28,77c0,.2,1.08,7.17,1.11,7.4l-2.27.2c0-.21-1-7.15-1-7.38C30.32,77.17,32.09,77,32.28,77Z" fill="#9cb227"/><path d="M29.29,77.34c0,.21.79,7.15.81,7.37l-2.16.19c0-.21-.82-7.11-.85-7.33Z" fill="#9cb227"/><path d="M28.52,46.47c0,.2.31,2.53.34,2.74l-1.25.12c0-.21-.14-2.57-.15-2.77Z" fill="#9cb227"/><path d="M29,67c0,.19.33,3.87.35,4.08l-1.45.13c0-.21-.28-3.86-.29-4.06Z" fill="#9cb227"/><path d="M28.31,59.3c0,.21.3,3.45.32,3.64l-1.32.14c0-.22-.23-3.46-.24-3.66Z" fill="#9cb227"/><path d="M31.4,66.74c0,.2.55,3.86.58,4.08L30.32,71l-.39-4.08Z" fill="#9cb227"/><path d="M27.74,52.77c0,.16.06.66.06.66s.17,2,.19,2.16l-1.14.12c0-.21-.14-2.66-.15-2.85Z" fill="#9cb227"/><path d="M26.76,46.62c0,.22,0,2.61,0,2.8l-1.28.13c0-.24.17-2.66.18-2.83Z" fill="#9cb227"/><path d="M26.23,59.51c0,.21.16,3.47.17,3.67L25,63.32c0-.22,0-3.5,0-3.69Z" fill="#9cb227"/><path d="M26.64,67.22c0,.22.29,3.85.31,4.06l-1.55.14c-.11-1.33-.19-2.69-.25-4Z" fill="#9cb227"/><path d="M26,52.91c0,.22.06,2.69.07,2.88L25,55.9c0-.22,0-1.34,0-1.34s0-1.39,0-1.57Z" fill="#9cb227"/><path d="M30.34,59.11c0,.2.46,3.39.49,3.6l-1.3.14c0-.21-.35-3.42-.37-3.63Z" fill="#9cb227"/><path d="M29.49,52.62c0,.19.33,2.57.36,2.77l-1.09.12c0-.2-.31-2.59-.33-2.8Z" fill="#9cb227"/><path d="M26.28,76.73l6.79-.7a3.23,3.23,0,0,0-3.5-1.79C26.58,74.59,26.28,76.73,26.28,76.73Z" fill="#9cb227"/><path d="M52.67,59.25a60.59,60.59,0,0,1-7.37-7.06c-6.5-7.41-6-7.72-5.06-7.44A49,49,0,0,0,45,46.27c2.07.46,5.64.78,7.27.35,1.15-.31.34-.81-.23-1.08,0,0-5.79-2.58-9.21-6.59s-4.29-4.79-6.57-9.61c0,0-.4-.89-.5-1.15s-.13-.6.89-.11a9.58,9.58,0,0,0,3.75.76c1.2,0,1.12-.39.74-.79,0,0-2.06-2.26-3.27-3.81a29.54,29.54,0,0,1-3.28-6.61c-.52-1.38-1-3.9-.69-4s.82.75,2,1.51a6.18,6.18,0,0,0,1.58.79c.4.15.83.06.37-.79,0,0-1.33-2.56-1.72-3.61a13.73,13.73,0,0,1-1-7A13.18,13.18,0,0,1,36.65.6c.19-.44.37-1-1.18-.18C35.09.62,33,2,29.79,6.15s-5.29,7-6.54,8.61S19,19.47,17.79,20.63c-1.62,1.59-1.54,1.84-.64,1.89a15.34,15.34,0,0,0,4.22-.81c1-.36,1.46-.59,1.73-.71s.75-.29.31.48a31.83,31.83,0,0,1-4.61,5.58c-2.16,2-5.41,4.94-7,6s-1.79,1.34-2.43,1.81c-.93.7-1.32,1.41-.32,1.34S12,36,13.55,35.7s2-.38,2.66-.53,2.05-.68,1.43.34a54.18,54.18,0,0,1-7,9.14c-4.85,5.39-7.37,8-9.4,9.59S0,56.26,1.29,56s6-1.78,8.36-2.67c1.79-.68,3.19-1.37,3.84-1.69s.95-.19.76.32A35.49,35.49,0,0,1,11,58c-1,1.49-1.78,2.51-2.37,3.34s-.9,1.19-1.27,1.75-.52,1.27,1.23.81a63,63,0,0,0,7.9-2.6c1.78-.75,4.57-1.79,5.95-2.38a155.09,155.09,0,0,0,1.12,22.46.6.6,0,0,0,.06.22,1,1,0,0,0,.12.16l1.53,1.63s.28.27.29-.11c-3-23.79-1.39-36.21.22-44.83L29,36.74c.07.81.17,1.75.29,2.82C30.18,51.23,32.63,67.5,35,81.87c0,.07,0,.15.1.15s.14-.18.14-.18l.81-2.32s.07-.22.08-.28a1.68,1.68,0,0,0,0-.29c-.72-4.29-1.47-9.21-2.22-14.3.87.2,3.55.8,5,1.1a26,26,0,0,0,4.77.75c1,0,.43-.65.32-.82S41.84,63,41.13,62.09c-1.79-2.31-2.13-3.16-1-3l6.29.83c1.65.22,4.78.78,5.79.77C53.6,60.66,53.81,60.07,52.67,59.25Z" fill="#9cb227"/><path d="M77.4,57c0,.57-.1.66-.64.66H66.25c-.54,0-.67-.09-.67-.66V36.49c0-.57.13-.67.67-.67H76.73c.64,0,.8.06.8.35a1.54,1.54,0,0,1-.1.45l-.6,2.14a.65.65,0,0,1-.74.51h-6.2v5.27h5.43c.58,0,.68.1.68.67v2.12c0,.57-.13.67-.68.67H69.89v6.26h6.84c.57,0,.67.09.67.67Z" fill="#9cb227"/><path d="M92.39,57.45c-.13.45-.16.54-.71.54H88c-.54,0-.61-.09-.7-.54L81.72,37.16a2.59,2.59,0,0,1-.16-.67c0-.22.35-.29.6-.35l3.2-.54a3.71,3.71,0,0,1,.48-.07c.16,0,.35,0,.47.64L89,49c.23,1,.61,3.41.8,4.88h.06c.19-1.47.71-3.87,1-4.88L94,36.17c.16-.64.32-.64.48-.64a3.71,3.71,0,0,1,.48.07l2.81.35c.26.06.61.13.61.35a3.08,3.08,0,0,1-.16.67Z" fill="#9cb227"/><path d="M116,57c0,.57-.1.66-.64.66H104.81c-.54,0-.67-.09-.67-.66V36.49c0-.57.13-.67.67-.67H115.3c.63,0,.79.06.79.35a1.48,1.48,0,0,1-.09.45l-.61,2.14a.65.65,0,0,1-.74.51h-6.2v5.27h5.44c.58,0,.67.1.67.67v2.12c0,.57-.13.67-.67.67h-5.44v6.26h6.85c.57,0,.67.09.67.67Z" fill="#9cb227"/><path d="M128.39,57c0,.57-.12.66-.67.66h-3c-.54,0-.67-.09-.67-.66V36.49c0-.57.13-.67.67-.67h5.18c2.46,0,7.44.16,7.44,6.17a5.87,5.87,0,0,1-3.64,5.91l4.76,8.53a1.33,1.33,0,0,1,.26.61c0,.19-.32.28-.64.38l-2.69.77a3.25,3.25,0,0,1-.45.06c-.16,0-.41-.39-.73-1l-4.31-8.58h-1.54Zm.83-11.73c2.08,0,3.84-.33,3.84-3.26,0-2.78-1.82-2.87-3.49-2.87h-1.18v6.13Z" fill="#9cb227"/><path d="M159,55.76c0,1.34-3.78,2.49-6.39,2.49-5.63,0-8.57-3.65-8.57-11.37s2.91-11.6,8.63-11.6c2.87,0,5.94,1.4,5.94,1.95a1.07,1.07,0,0,1-.16.47l-1.05,2.11c-.1.2-.23.32-.36.32a9.21,9.21,0,0,0-4.15-1.4c-3.26,0-4.31,3-4.31,7.92s.83,8.15,4.27,8.15a5.62,5.62,0,0,0,2.31-.51V49.65h-2.4c-.54,0-.67-.09-.67-.67v-2.1c0-.58.13-.68.67-.68h5.56c.55,0,.68.1.68.68Z" fill="#9cb227"/><path d="M170.89,57c0,.57-.13.66-.67.66h-3c-.55,0-.68-.09-.68-.66V36.49c0-.57.13-.67.68-.67h5.17c2.47,0,7.44.16,7.44,6.17a5.87,5.87,0,0,1-3.64,5.91L181,56.43a1.44,1.44,0,0,1,.25.61c0,.19-.32.28-.64.38l-2.68.77a3.47,3.47,0,0,1-.45.06c-.16,0-.41-.39-.74-1l-4.31-8.58h-1.53Zm.83-11.73c2.08,0,3.83-.33,3.83-3.26,0-2.78-1.82-2.87-3.48-2.87h-1.18v6.13Z" fill="#9cb227"/><path d="M199.58,57c0,.57-.1.66-.64.66H188.43c-.55,0-.67-.09-.67-.66V36.49c0-.57.12-.67.67-.67h10.48c.63,0,.79.06.79.35a1.08,1.08,0,0,1-.1.45l-.6,2.14a.65.65,0,0,1-.73.51h-6.2v5.27h5.43c.57,0,.67.1.67.67v2.12c0,.57-.12.67-.67.67h-5.43v6.26h6.84c.57,0,.67.09.67.67Z" fill="#9cb227"/><path d="M219.42,57c0,.57-.1.66-.64.66H208.27c-.54,0-.67-.09-.67-.66V36.49c0-.57.13-.67.67-.67h10.47c.65,0,.8.06.8.35a1.27,1.27,0,0,1-.1.45l-.6,2.14a.65.65,0,0,1-.73.51h-6.2v5.27h5.43c.57,0,.67.1.67.67v2.12c0,.57-.12.67-.67.67h-5.43v6.26h6.83c.58,0,.68.09.68.67Z" fill="#9cb227"/><path d="M241.2,57c0,.57-.09.66-.67.66h-2.1c-.45,0-.54-.06-.74-.45l-5.85-10.89A16.45,16.45,0,0,1,230,42H230c0,.41.1,2,.1,3.52V57c0,.57-.13.66-.68.66h-2.32c-.55,0-.68-.09-.68-.66V36.49c0-.57.13-.67.68-.67h2.61c.48,0,.55.06.73.42l5.28,9.9a25.15,25.15,0,0,1,1.88,4.63h.06c0-1-.09-3.26-.09-4.15V36.49c0-.57.13-.67.67-.67h2.33c.55,0,.67.1.67.67Z" fill="#9cb227"/></svg>